#!OML:ASF H:\Terrain\Patient Classification 1\Animal2\Wednesday\Animal2.ASF
:FULLY-SPECIFIED
:DEGREES
1235
root 14.1157 17.9648 -22.0886 11.0032 -19.1012 -2.82236
lowerback 8.92196 -2.26485 0.0651306
upperback -3.52626 -3.07175 -0.468931
thorax -8.78326 -1.51299 -0.0303306
lowerneck 8.78275 5.14223 15.5299
upperneck -14.916 6.54466 -18.9222
head -4.59012 3.72686 -9.09062
rclavicle -1.68967e-014 2.38542e-014
rhumerus -37.1381 23.2922 -71.5782
rradius 123.959
rwrist -10.6637
rhand -27.8665 20.7504
rfingers 7.12502
rthumb -1.25694 -9.22566
lclavicle -1.68967e-014 2.38542e-014
lhumerus -32.9839 -5.19428 48.2662
lradius 114.702
lwrist 47.7747
lhand -19.2105 7.15958
lfingers 7.12502
lthumb 7.10193 37.0204
rfemur -14.0763 -2.51018 20.1587
rtibia 23.3048
rfoot -17.6611 0.704138
rtoes 24.1775
lfemur -15.1799 -0.449226 -21.5269
ltibia 22.7926
lfoot -16.5105 2.64378
ltoes -19.5537
1236
root 14.1195 17.9641 -22.073 11.0468 -19.2858 -2.7281
lowerback 8.6945 -2.17178 -0.0411171
upperback -3.60014 -2.97146 -0.59879
thorax -8.73153 -1.46365 -0.132329
lowerneck 9.11221 4.98271 15.4975
upperneck -15.176 6.37747 -18.622
head -4.7733 3.63693 -9.01104
rclavicle -5.4467e-014 -1.27222e-014
rhumerus -38.6073 26.5168 -73.1222
rradius 123.957
rwrist -10.7865
rhand -26.6054 21.5695
rfingers 7.12502
rthumb -0.0389798 -8.4102
lclavicle -5.4467e-014 -1.27222e-014
lhumerus -32.9087 -6.01184 48.5717
lradius 115.275
lwrist 45.9777
lhand -17.3337 6.2373
lfingers 7.12502
lthumb 8.9133 36.029
rfemur -14.1995 -2.67739 20.0393
rtibia 23.3593
rfoot -17.6529 0.780704
rtoes 23.5991
lfemur -15.1525 -0.464633 -21.6727
ltibia 22.6925
lfoot -16.4373 2.75683
ltoes -19.1587
1237
root 14.1227 17.957 -22.056 11.0788 -19.4414 -2.6888
lowerback 8.49489 -2.06888 -0.117028
upperback -3.65772 -2.84898 -0.674042
thorax -8.67656 -1.40325 -0.195698
lowerneck 9.16935 4.88057 15.5805
upperneck -15.039 6.27267 -18.603
head -4.76023 3.58224 -9.01319
rclavicle 2.70347e-014 9.54166e-015
rhumerus -40.1764 29.4148 -74.6676
rradius 124.155
rwrist -10.5846
rhand -25.4701 21.5723
rfingers 7.12502
rthumb 1.05758 -8.40487
lclavicle 2.70347e-014 9.54166e-015
lhumerus -33.1091 -7.91069 49.1543
lradius 116.078
lwrist 44.6139
lhand -15.9285 4.94784
lfingers 7.12502
lthumb 10.2692 34.6771
rfemur -14.2231 -2.69278 19.9695
rtibia 23.4209
rfoot -17.8179 0.931359
rtoes 22.7395
lfemur -15.0995 -0.526099 -21.7584
ltibia 22.6225
lfoot -16.2745 3.09637
ltoes -20.9044
1238
root 14.1292 17.9502 -22.04 11.0649 -19.4965 -2.65696
lowerback 8.39171 -2.01283 -0.185065
upperback -3.71067 -2.78326 -0.685673
thorax -8.67038 -1.36824 -0.183128
lowerneck 9.1953 4.92427 15.5353
upperneck -14.8753 6.3411 -18.6374
head -4.70365 3.62269 -9.01026
rclavicle 1.02374e-014 -1.82882e-014
rhumerus -41.4585 31.5988 -75.8472
rradius 124.217
rwrist -10.0737
rhand -23.9917 22.6923
rfingers 7.12502
rthumb 2.48536 -7.27296
lclavicle 1.02374e-014 -1.82882e-014
lhumerus -33.4366 -10.328 50.0062
lradius 117.097
lwrist 43.7016
lhand -15.1683 4.29648
lfingers 7.12502
lthumb 11.0024 33.9882
rfemur -14.1593 -2.96935 19.9412
rtibia 23.4289
rfoot -18.0108 1.01378
rtoes 21.8162
lfemur -15.034 -0.326869 -21.856
ltibia 22.6534
lfoot -16.3492 3.16219
ltoes -22.5597
1239
root 14.1389 17.9448 -22.0245 10.936 -19.5523 -2.46254
lowerback 8.33878 -1.90572 -0.377819
upperback -3.70267 -2.66911 -0.772117
thorax -8.62528 -1.305 -0.186682
lowerneck 9.22615 4.93927 15.4637
upperneck -14.9721 6.3469 -18.6262
head -4.73991 3.62956 -9.00086
rclavicle -9.24349e-015 -3.57812e-014
rhumerus -42.3024 32.7237 -76.4699
rradius 124.229
rwrist -9.1999
rhand -22.9548 23.4478
rfingers 7.12502
rthumb 3.48678 -6.50347
lclavicle -9.24349e-015 -3.57812e-014
lhumerus -33.6413 -13.3606 51.0991
lradius 118.096
lwrist 43.0423
lhand -14.0399 3.9951
lfingers 7.12502
lthumb 12.0906 33.6258
rfemur -14.0171 -3.38272 19.7347
rtibia 23.3647
rfoot -18.0817 1.19557
rtoes 21.7166
lfemur -14.9524 -0.0919192 -22.1404
ltibia 22.7964
lfoot -16.6095 2.98745
ltoes -22.0446
1240
root 14.1478 17.9378 -22.0076 10.8633 -19.5856 -2.44126
lowerback 8.28971 -1.73393 -0.45782
upperback -3.66978 -2.44791 -0.784461
thorax -8.5568 -1.19358 -0.191762
lowerneck 9.15232 4.91019 15.3588
upperneck -15.0267 6.27271 -18.6416
head -4.75971 3.59682 -8.98643
rclavicle -6.95746e-015 4.77083e-015
rhumerus -42.762 32.9484 -76.5118
rradius 124.245
rwrist -8.42322
rhand -22.9894 23.8725
rfingers 7.12502
rthumb 3.45337 -6.07927
lclavicle -6.95746e-015 4.77083e-015
lhumerus -33.8179 -16.7546 52.5491
lradius 118.931
lwrist 42.0079
lhand -12.6096 3.90289
lfingers 7.12502
lthumb 13.4695 33.4473
rfemur -13.8732 -3.66059 19.7065
rtibia 23.3013
rfoot -18.0316 1.10272
rtoes 20.5644
lfemur -14.8939 -0.0220828 -22.2214
ltibia 22.9645
lfoot -16.8058 2.81886
ltoes -20.5894
1241
root 14.1553 17.931 -21.9911 10.8808 -19.5611 -2.67822
lowerback 8.23277 -1.59067 -0.308423
upperback -3.66616 -2.22926 -0.68517
thorax -8.52007 -1.09241 -0.206343
lowerneck 9.19305 4.95183 15.1563
upperneck -14.8904 6.31091 -18.6902
head -4.72464 3.63236 -8.96296
rclavicle 4.75095e-014 -2.38542e-015
rhumerus -42.9084 32.4039 -76.1618
rradius 124.298
rwrist -8.14459
rhand -23.1979 24.4547
rfingers 7.12502
rthumb 3.25196 -5.50025
lclavicle 4.75095e-014 -2.38542e-015
lhumerus -34.0771 -20.014 54.1485
lradius 119.607
lwrist 40.5865
lhand -11.0924 3.86976
lfingers 7.12502
lthumb 14.9315 33.3116
rfemur -13.7516 -4.07468 19.9673
rtibia 23.2636
rfoot -17.9432 0.972332
rtoes 18.3895
lfemur -14.8482 -0.102181 -22.0122
ltibia 23.1204
lfoot -16.8559 2.92906
ltoes -20.789
1242
root 14.1635 17.9234 -21.9809 10.865 -19.5752 -2.77312
lowerback 8.15116 -1.47766 -0.285126
upperback -3.6523 -2.06752 -0.604888
thorax -8.45404 -1.01266 -0.162067
lowerneck 9.28341 5.09283 14.9488
upperneck -14.664 6.48401 -18.8707
head -4.64095 3.74589 -8.983
rclavicle -2.08724e-014 -2.3059e-014
rhumerus -42.6134 31.1686 -75.4734
rradius 124.391
rwrist -8.48785
rhand -23.7229 24.3051
rfingers 7.12502
rthumb 2.74493 -5.65695
lclavicle -2.08724e-014 -2.3059e-014
lhumerus -34.4175 -22.9033 55.5871
lradius 120.093
lwrist 38.8753
lhand -9.5669 3.38098
lfingers 7.12502
lthumb 16.4007 32.7076
rfemur -13.6472 -4.41204 20.0524
rtibia 23.1988
rfoot -17.8856 1.17094
rtoes 18.2098
lfemur -14.8563 -0.130192 -21.9646
ltibia 23.2913
lfoot -16.9396 3.10778
ltoes -21.4455
1243
root 14.1746 17.9172 -21.9758 10.7853 -19.5213 -2.83982
lowerback 8.08408 -1.42144 -0.272701
upperback -3.57159 -1.98026 -0.496149
thorax -8.32343 -0.967818 -0.0705757
lowerneck 9.33299 5.29279 14.8925
upperneck -14.415 6.71996 -19.3631
head -4.5105 3.90197 -9.13346
rclavicle -3.65764e-014 -8.74653e-015
rhumerus -41.7688 29.4533 -74.489
rradius 124.455
rwrist -9.49399
rhand -25.4685 23.2464
rfingers 7.12502
rthumb 1.05904 -6.7307
lclavicle -3.65764e-014 -8.74653e-015
lhumerus -34.7091 -25.2693 56.7587
lradius 120.288
lwrist 36.9242
lhand -8.03221 2.57434
lfingers 7.12502
lthumb 17.8778 31.7726
rfemur -13.4689 -4.37726 20.077
rtibia 23.1245
rfoot -17.8437 1.1594
rtoes 18.7859
lfemur -14.8173 -0.0411037 -21.9452
ltibia 23.4558
lfoot -17.0838 3.03491
ltoes -21.2235
1244
root 14.1863 17.9162 -21.9722 10.6331 -19.3366 -2.9333
lowerback 8.11588 -1.3648 -0.226347
upperback -3.42773 -1.88926 -0.396557
thorax -8.18432 -0.923075 -0.0065894
lowerneck 9.23705 5.41309 14.9576
upperneck -14.0814 6.85095 -19.9172
head -4.34032 3.99699 -9.31326
rclavicle 2.78299e-014 1.59028e-014
rhumerus -40.5243 27.0195 -73.3469
rradius 124.451
rwrist -10.9468
rhand -27.387 22.1145
rfingers 7.12502
rthumb -0.793849 -7.86375
lclavicle 2.78299e-014 1.59028e-014
lhumerus -34.6799 -27.1897 57.7305
lradius 120.161
lwrist 35.1614
lhand -6.38121 2.01422
lfingers 7.12502
lthumb 19.4659 31.0598
rfemur -13.2252 -4.177 20.13
rtibia 23.1367
rfoot -17.8962 0.87646
rtoes 19.0434
lfemur -14.6614 -0.0472745 -21.8615
ltibia 23.5216
lfoot -17.1283 2.71476
ltoes -20.4547
1245
root 14.1962 17.9141 -21.9702 10.4621 -19.1112 -2.86204
lowerback 8.17492 -1.32539 -0.288438
upperback -3.3342 -1.84119 -0.378014
thorax -8.11512 -0.895819 0.0406894
lowerneck 9.00483 5.4504 14.9851
upperneck -13.4824 6.89764 -20.3098
head -4.09441 4.03248 -9.40948
rclavicle 1.93815e-014 -4.77083e-015
rhumerus -39.189 24.0664 -72.2631
rradius 124.354
rwrist -12.793
rhand -28.4985 20.9599
rfingers 7.12502
rthumb -1.86735 -9.01169
lclavicle 1.93815e-014 -4.77083e-015
lhumerus -34.5871 -28.5257 58.4117
lradius 119.875
lwrist 33.9229
lhand -5.01415 1.67402
lfingers 7.12502
lthumb 20.7798 30.5814
rfemur -13.049 -4.07942 20.0188
rtibia 23.204
rfoot -17.9918 0.716914
rtoes 19.7121
lfemur -14.5287 -0.119374 -21.9424
ltibia 23.4976
lfoot -17.1349 2.49749
ltoes -20.65
1246
root 14.2065 17.9109 -21.9674 10.2415 -18.8182 -2.69585
lowerback 8.28223 -1.4175 -0.317583
upperback -3.31708 -1.97008 -0.399697
thorax -8.159 -0.957441 0.0562406
lowerneck 8.76451 5.58507 15.0619
upperneck -12.6125 7.12322 -20.6997
head -3.73361 4.14908 -9.49944
rclavicle 6.95746e-015 -3.97569e-015
rhumerus -37.9553 21.1383 -71.4422
rradius 124.228
rwrist -14.6426
rhand -29.9126 19.4957
rfingers 7.12502
rthumb -3.23308 -10.4596
lclavicle 6.95746e-015 -3.97569e-015
lhumerus -34.7015 -29.066 58.7081
lradius 119.542
lwrist 33.2981
lhand -4.08696 1.46932
lfingers 7.12502
lthumb 21.6705 30.2765
rfemur -12.87 -4.10723 19.8043
rtibia 23.2848
rfoot -18.0617 0.633986
rtoes 20.4372
lfemur -14.3385 -0.324766 -22.1145
ltibia 23.4239
lfoot -17.2022 2.38076
ltoes -20.8293
1247
root 14.2162 17.9121 -21.9625 10.1029 -18.4842 -2.73746
lowerback 8.32553 -1.5794 -0.102636
upperback -3.2676 -2.16135 -0.396118
thorax -8.1389 -1.06185 -0.0310313
lowerneck 8.45454 5.8829 15.2726
upperneck -11.8492 7.58503 -21.0482
head -3.34261 4.36964 -9.59821
rclavicle 4.57205e-015 1.43125e-014
rhumerus -36.725 18.1365 -70.797
rradius 124.093
rwrist -15.9386
rhand -31.2393 18.5259
rfingers 7.12502
rthumb -4.51417 -11.406
lclavicle 4.57205e-015 1.43125e-014
lhumerus -34.8166 -28.7791 58.7459
lradius 119.086
lwrist 32.6739
lhand -3.76207 1.7022
lfingers 7.12502
lthumb 21.9824 30.4731
rfemur -12.7265 -3.96233 19.8072
rtibia 23.413
rfoot -18.1567 0.374332
rtoes 21.0079
lfemur -14.1292 -0.634613 -22.0401
ltibia 23.3046
lfoot -17.2596 2.04444
ltoes -19.2899
1248
root 14.2243 17.9152 -21.9571 10.1084 -18.2663 -2.96401
lowerback 8.24562 -1.71296 0.227295
upperback -3.20403 -2.29839 -0.358023
thorax -8.03624 -1.14507 -0.158699
lowerneck 8.17989 6.25784 15.2517
upperneck -11.3243 8.13321 -21.0518
head -3.0386 4.62574 -9.54769
rclavicle -1.98288e-014 6.36111e-015
rhumerus -35.7104 15.3993 -70.3181
rradius 124.076
rwrist -17.0066
rhand -31.9845 17.9912
rfingers 7.12502
rthumb -5.23374 -11.9242
lclavicle -1.98288e-014 6.36111e-015
lhumerus -34.9515 -27.7833 58.6457
lradius 118.421
lwrist 32.0205
lhand -4.17897 1.9311
lfingers 7.12502
lthumb 21.5821 30.7485
rfemur -12.7133 -3.58038 19.995
rtibia 23.5887
rfoot -18.2327 0.0355542
rtoes 21.3833
lfemur -13.9951 -0.722243 -21.7957
ltibia 23.1599
lfoot -17.2712 1.87188
ltoes -18.9974
